<svg width="56" height="56" viewBox="0 0 56 56" fill="none" xmlns="http://www.w3.org/2000/svg">
<path fill-rule="evenodd" clip-rule="evenodd" d="M14.8517 13.4378C13.6437 12.2299 13.6785 10.2402 15.084 9.26923C17.6794 7.47622 20.6656 6.2087 23.8889 5.62045C25.5689 5.31386 26.9997 6.69644 26.9997 8.40417V18.3432C26.9997 21.0159 23.7683 22.3544 21.8784 20.4645L14.8517 13.4378ZM11.9784 11.8482C11.9347 11.8916 11.8912 11.935 11.8479 11.9787L11.9784 11.8482ZM13.4375 14.852C12.2295 13.6441 10.2399 13.6788 9.2689 15.0843C7.47589 17.6797 6.20838 20.6659 5.62013 23.8893C5.31353 25.5692 6.69611 27 8.40384 27H18.3428C21.0156 27 22.3541 23.7686 20.4642 21.8787L13.4375 14.852ZM5.24969 28L5.24996 27.8891L5.24996 28.1109L5.24969 28ZM13.4375 41.148C12.2295 42.356 10.2399 42.3212 9.2689 40.9157C7.47589 38.3203 6.20838 35.3341 5.62013 32.1108C5.31353 30.4308 6.69611 29 8.40384 29H18.3428C21.0156 29 22.3541 32.2314 20.4642 34.1213L13.4375 41.148ZM11.8482 44.0216C11.8913 44.0651 11.9346 44.1084 11.9781 44.1515L11.8482 44.0216ZM14.8517 42.5622C13.6437 43.7702 13.6785 45.7598 15.084 46.7308C17.6794 48.5238 20.6656 49.7913 23.8889 50.3796C25.5689 50.6862 26.9997 49.3036 26.9997 47.5959V37.6569C26.9997 34.9842 23.7683 33.6457 21.8784 35.5356L14.8517 42.5622ZM35.5352 21.8787C33.6453 23.7686 34.9838 27 37.6566 27H47.5956C49.3033 27 50.6859 25.5692 50.3793 23.8893C49.791 20.6659 48.5235 17.6797 46.7305 15.0843C45.7595 13.6788 43.7699 13.6441 42.5619 14.852L35.5352 21.8787ZM41.1477 13.4378C42.3556 12.2299 42.3209 10.2402 40.9154 9.26923C38.32 7.47622 35.3338 6.2087 32.1105 5.62045C30.4305 5.31386 28.9997 6.69644 28.9997 8.40417V18.3432C28.9997 21.0159 32.2311 22.3544 34.121 20.4645L41.1477 13.4378ZM46.7305 40.9157C45.7595 42.3212 43.7699 42.356 42.5619 41.148L35.5352 34.1213C33.6453 32.2314 34.9838 29 37.6565 29H47.5956C49.3033 29 50.6859 30.4308 50.3793 32.1108C49.791 35.3341 48.5235 38.3203 46.7305 40.9157ZM34.121 35.5356C32.2311 33.6457 28.9997 34.9842 28.9997 37.6569V47.5959C28.9997 49.3036 30.4305 50.6862 32.1105 50.3796C35.3338 49.7913 38.32 48.5238 40.9154 46.7308C42.3209 45.7598 42.3556 43.7702 41.1477 42.5622L34.121 35.5356Z" fill="#6A54FF"/>
<circle cx="27.9998" cy="5.25" r="3.75" fill="#57E1FF" stroke="black"/>
<circle cx="27.9998" cy="50.75" r="3.75" fill="#57E1FF" stroke="black"/>
<circle cx="11.9131" cy="11.9136" r="3.75" transform="rotate(-45 11.9131 11.9136)" fill="#57E1FF" stroke="black"/>
<circle cx="44.0865" cy="44.0864" r="3.75" transform="rotate(-45 44.0865 44.0864)" fill="#57E1FF" stroke="black"/>
<circle cx="5.25" cy="28" r="3.75" transform="rotate(-90 5.25 28)" fill="#57E1FF" stroke="black"/>
<circle cx="50.7498" cy="28" r="3.75" transform="rotate(-90 50.7498 28)" fill="#57E1FF" stroke="black"/>
<circle cx="11.9132" cy="44.0867" r="3.75" transform="rotate(-135 11.9132 44.0867)" fill="#57E1FF" stroke="black"/>
<circle cx="44.0865" cy="11.9136" r="3.75" transform="rotate(-135 44.0865 11.9136)" fill="#57E1FF" stroke="black"/>
</svg>
