<svg width="132" height="64" viewBox="0 0 132 64" fill="none" xmlns="http://www.w3.org/2000/svg">
<g id="Frame 21067" clip-path="url(#clip0_1_27)">
<g id="Group 36">
<g id="Vector">
<path d="M62.0864 31.0656H55.6032L52.2199 46.6259H59.2035C64.2282 46.6259 65.7196 43.8596 65.7373 41.6769C65.7527 39.7751 64.6731 38.9971 63.6538 38.6621L63.6872 38.4892C65.1162 38.1758 66.8502 37.0088 66.8696 34.6099C66.8883 32.2975 65.0991 31.0656 62.0864 31.0656ZM56.8232 43.449L57.5082 40.3586H60.2654C61.3194 40.3586 61.944 40.7908 61.9367 41.6877C61.9292 42.617 61.2199 43.449 59.7295 43.449H56.8232ZM58.1939 37.1817L58.8351 34.2425H61.3794C62.4333 34.2425 63.0156 34.6423 63.0087 35.496C63.0016 36.3821 62.3351 37.1817 60.8128 37.1817H58.1939Z" fill="white"/>
<path d="M68.8923 31.0656L65.509 46.6259H76.6573L77.3978 43.2545H70.2948L72.9377 31.0656H68.8923Z" fill="white"/>
<path d="M84.5234 31.0656L76.8951 46.3018L76.8286 46.6259H80.6717L82.167 43.3842H86.7127L86.8036 46.6259H90.487L90.5535 46.3018L89.5482 31.0656H84.5234ZM83.6838 40.1209L86.3059 34.4478H86.4762L86.622 40.1209H83.6838Z" fill="white"/>
<path d="M98.2064 31.0656H93.831L90.4477 46.6259H95.8344C102.616 46.6259 104.839 41.5688 104.874 37.2465C104.906 33.2376 102.273 31.0656 98.2064 31.0656ZM95.1477 43.341L97.0833 34.3506H98.0521C99.9257 34.3506 100.993 35.3879 100.977 37.3654C100.953 40.2505 99.5018 43.341 96.3932 43.341H95.1477Z" fill="white"/>
<path d="M107.12 31.0656L103.737 46.6259H115.341L116.026 43.449H108.383L109.057 40.3802H115.487L116.173 37.2033H109.753L110.395 34.2425H117.889L118.575 31.0656H107.12Z" fill="white"/>
</g>
<g id="Vector_2">
<path d="M68.3255 13.0552L67.6066 16.3834H72.0139L69.3495 28.6155H73.3522L76.0167 16.3834H80.424L81.1428 13.0552H68.3255Z" fill="white"/>
<path d="M87.9274 13.0552H81.6359L78.2526 28.6155H82.1702L83.4971 22.4994H83.71L86.8649 28.6155H90.8357L90.9022 28.2913L87.7232 22.5211C91.6008 22.1969 93.0348 19.9601 93.0567 17.2478C93.0783 14.568 91.0998 13.0552 87.9274 13.0552ZM84.1163 19.6467L84.8678 16.2321H87.3695C88.5831 16.2321 89.2711 16.7184 89.2634 17.6693C89.2554 18.6634 88.5448 19.6467 86.7777 19.6467H84.1163Z" fill="white"/>
<path d="M97.778 13.0552L90.1497 28.2913L90.0832 28.6155H93.9263L95.4216 25.3738H99.9672L100.058 28.6155H103.742L103.808 28.2913L102.803 13.0552H97.778ZM96.9383 22.1104L99.5604 16.4374H99.7307L99.8765 22.1104H96.9383Z" fill="white"/>
<path d="M111.461 13.0552H107.086L103.702 28.6155H109.089C115.87 28.6155 118.093 23.5584 118.128 19.2361C118.161 15.2272 115.528 13.0552 111.461 13.0552ZM108.402 25.3306L110.338 16.3402H111.307C113.18 16.3402 114.247 17.3775 114.231 19.355C114.208 22.2401 112.756 25.3306 109.648 25.3306H108.402Z" fill="white"/>
<path d="M120.375 13.0552L116.991 28.6155H128.595L129.281 25.4386H121.637L122.311 22.3698H128.741L129.427 19.1929H123.008L123.649 16.2321H131.144L131.829 13.0552H120.375Z" fill="white"/>
</g>
</g>
<g id="Group 35">
<g id="Group 32">
<path id="Polygon 3" d="M25.3386 46.6678L-2.14095e-05 2.92484L12.586 13.025L28.6741 40.8904L25.3386 46.6678Z" fill="#5E47FF"/>
<path id="Polygon 5" d="M49.1241 20.1847L23.9108 64.0001L26.3648 48.0501L42.4529 20.1847L49.1241 20.1847Z" fill="#5E47FF"/>
</g>
<g id="Group 33">
<path id="Polygon 4" d="M14.4431 13.1039L64.9949 13.0315L49.9549 18.8812L17.7787 18.8812L14.4431 13.1039Z" fill="#5E47FF"/>
</g>
<path id="Polygon 19" d="M25.3386 46.6679L-2.14095e-05 2.9249L12.586 13.0251L28.6741 40.8905L25.3386 46.6679Z" fill="#5E47FF"/>
<path id="Polygon 20" d="M49.1241 20.1848L23.9108 64.0001L26.3648 48.0502L42.4529 20.1848L49.1241 20.1848Z" fill="#5E47FF"/>
<g id="Polygon 23" filter="url(#filter0_f_1_27)">
<path d="M14.4431 13.1039L64.9949 13.0315L49.9549 18.8812L17.7787 18.8812L14.4431 13.1039Z" fill="#5E47FF"/>
</g>
<g id="Group 34">
<path id="Polygon 18" d="M29.5829 37.589L39.1131 21.0822H20.0527L29.5829 37.589Z" fill="#57E1FF"/>
<g id="Polygon 21" filter="url(#filter1_f_1_27)">
<path d="M25.3386 46.6678L-2.14095e-05 2.92484L12.586 13.025L28.6741 40.8904L25.3386 46.6678Z" fill="#5E47FF"/>
</g>
<g id="Polygon 22" filter="url(#filter2_f_1_27)">
<path d="M49.1241 20.1847L23.9108 64.0001L26.3648 48.0501L42.4529 20.1847L49.1241 20.1847Z" fill="#5E47FF"/>
</g>
<path id="Polygon 24" d="M14.4431 13.1038L64.9949 13.0314L49.9549 18.8812L17.7787 18.8812L14.4431 13.1038Z" fill="#5E47FF"/>
</g>
</g>
</g>
<defs>
<filter id="filter0_f_1_27" x="-5.5569" y="-6.96851" width="90.5518" height="45.8498" filterUnits="userSpaceOnUse" color-interpolation-filters="sRGB">
<feFlood flood-opacity="0" result="BackgroundImageFix"/>
<feBlend mode="normal" in="SourceGraphic" in2="BackgroundImageFix" result="shape"/>
<feGaussianBlur stdDeviation="10" result="effect1_foregroundBlur_1_27"/>
</filter>
<filter id="filter1_f_1_27" x="-20" y="-17.0752" width="68.6742" height="83.743" filterUnits="userSpaceOnUse" color-interpolation-filters="sRGB">
<feFlood flood-opacity="0" result="BackgroundImageFix"/>
<feBlend mode="normal" in="SourceGraphic" in2="BackgroundImageFix" result="shape"/>
<feGaussianBlur stdDeviation="10" result="effect1_foregroundBlur_1_27"/>
</filter>
<filter id="filter2_f_1_27" x="3.91084" y="0.184717" width="65.2132" height="83.8154" filterUnits="userSpaceOnUse" color-interpolation-filters="sRGB">
<feFlood flood-opacity="0" result="BackgroundImageFix"/>
<feBlend mode="normal" in="SourceGraphic" in2="BackgroundImageFix" result="shape"/>
<feGaussianBlur stdDeviation="10" result="effect1_foregroundBlur_1_27"/>
</filter>
<clipPath id="clip0_1_27">
<rect width="131.829" height="64" fill="white"/>
</clipPath>
</defs>
</svg>
